<?xml version="1.0" encoding="UTF-8" standalone="no"?>
<!DOCTYPE svg PUBLIC "-//W3C//DTD SVG 1.1//EN" "http://www.w3.org/Graphics/SVG/1.1/DTD/svg11.dtd">
<svg width="100%" height="100%" viewBox="0 0 512 512" version="1.1" xmlns="http://www.w3.org/2000/svg" xmlns:xlink="http://www.w3.org/1999/xlink" xml:space="preserve" xmlns:serif="http://www.serif.com/" style="fill-rule:evenodd;clip-rule:evenodd;stroke-linejoin:round;stroke-miterlimit:2;">
    <g transform="matrix(0.902331,0,0,0.688461,-13.3433,109.616)">
        <path d="M289.595,64.893C289.595,55.834 283.983,48.478 277.071,48.478L51.222,48.478C44.31,48.478 38.698,55.834 38.698,64.893L38.698,196.21C38.698,205.269 44.31,212.625 51.222,212.625L277.071,212.625C283.983,212.625 289.595,205.269 289.595,196.21L289.595,64.893Z" style="fill:rgb(255,222,0);"/>
    </g>
    <g transform="matrix(0.903959,0,0,0.688461,229.643,109.616)">
        <path d="M289.595,64.893C289.595,55.834 283.993,48.478 277.093,48.478L51.199,48.478C44.299,48.478 38.698,55.834 38.698,64.893L38.698,196.21C38.698,205.269 44.299,212.625 51.199,212.625L277.093,212.625C283.993,212.625 289.595,205.269 289.595,196.21L289.595,64.893Z" style="fill:rgb(217,189,0);"/>
    </g>
    <g transform="matrix(0.902331,0,0,0.749383,-13.3433,-26.3455)">
        <path d="M289.595,64.893C289.595,55.834 283.486,48.478 275.962,48.478L52.33,48.478C44.806,48.478 38.698,55.834 38.698,64.893L38.698,196.21C38.698,205.269 44.806,212.625 52.33,212.625L275.962,212.625C283.486,212.625 289.595,205.269 289.595,196.21L289.595,64.893Z" style="fill:rgb(255,61,56);"/>
    </g>
    <g transform="matrix(0.902331,0,0,0.749383,229.706,-26.3455)">
        <path d="M289.595,64.893C289.595,55.834 283.486,48.478 275.962,48.478L52.33,48.478C44.806,48.478 38.698,55.834 38.698,64.893L38.698,196.21C38.698,205.269 44.806,212.625 52.33,212.625L275.962,212.625C283.486,212.625 289.595,205.269 289.595,196.21L289.595,64.893Z" style="fill:rgb(255,61,56);"/>
    </g>
    <g transform="matrix(0.902331,0,0,0.688461,-13.3433,355.633)">
        <path d="M289.595,64.893C289.595,55.834 283.983,48.478 277.071,48.478L51.222,48.478C44.31,48.478 38.698,55.834 38.698,64.893L38.698,196.21C38.698,205.269 44.31,212.625 51.222,212.625L277.071,212.625C283.983,212.625 289.595,205.269 289.595,196.21L289.595,64.893Z" style="fill:rgb(30,255,0);"/>
    </g>
    <g transform="matrix(0.903959,0,0,0.688461,229.643,355.633)">
        <path d="M289.595,64.893C289.595,55.834 283.993,48.478 277.093,48.478L51.199,48.478C44.299,48.478 38.698,55.834 38.698,64.893L38.698,196.21C38.698,205.269 44.299,212.625 51.199,212.625L277.093,212.625C283.993,212.625 289.595,205.269 289.595,196.21L289.595,64.893Z" style="fill:rgb(30,255,0);"/>
    </g>
    <g transform="matrix(0.902331,0,0,0.688461,229.706,232.624)">
        <path d="M289.595,64.893C289.595,55.834 283.983,48.478 277.071,48.478L51.222,48.478C44.31,48.478 38.698,55.834 38.698,64.893L38.698,196.21C38.698,205.269 44.31,212.625 51.222,212.625L277.071,212.625C283.983,212.625 289.595,205.269 289.595,196.21L289.595,64.893Z" style="fill:rgb(62,109,0);"/>
    </g>
    <g transform="matrix(0.902331,0,0,0.688461,-13.3433,232.624)">
        <path d="M289.595,64.893C289.595,55.834 283.983,48.478 277.071,48.478L51.222,48.478C44.31,48.478 38.698,55.834 38.698,64.893L38.698,196.21C38.698,205.269 44.31,212.625 51.222,212.625L277.071,212.625C283.983,212.625 289.595,205.269 289.595,196.21L289.595,64.893Z" style="fill:rgb(145,255,0);"/>
    </g>
</svg>
